<?xml version="1.0" standalone="no"?>
<!DOCTYPE svg PUBLIC "-//W3C//DTD SVG 20010904//EN"
 "http://www.w3.org/TR/2001/REC-SVG-20010904/DTD/svg10.dtd">
<svg version="1.0" xmlns="http://www.w3.org/2000/svg"
 width="856.000000pt" height="1280.000000pt" viewBox="0 0 856.000000 1280.000000"
 preserveAspectRatio="xMidYMid meet">
<metadata>
Created by potrace 1.15, written by Peter Selinger 2001-2017
</metadata>
<g transform="translate(0.000000,1280.000000) scale(0.100000,-0.100000)"
fill="#000000" stroke="none">
<path d="M1457 12780 c-26 -21 -33 -42 -56 -188 -13 -79 -23 -92 -72 -92 l-39
0 0 44 c0 118 -72 206 -170 206 -48 0 -53 -9 -77 -135 -18 -94 -38 -138 -60
-133 -9 2 -44 36 -77 77 -65 78 -95 100 -137 101 -59 0 -93 -55 -120 -197 -6
-34 -20 -75 -30 -92 -22 -36 -55 -40 -138 -15 -29 8 -71 14 -94 12 l-42 -3 -3
-80 c-3 -75 11 -267 24 -333 5 -25 2 -30 -25 -42 -46 -19 -117 -103 -142 -168
-37 -95 -38 -282 -3 -484 5 -31 3 -39 -12 -44 -11 -4 -38 -23 -62 -41 -79 -64
-132 -192 -118 -284 11 -73 13 -74 102 -38 91 36 194 55 248 45 20 -4 50 -19
67 -34 28 -25 31 -34 44 -147 7 -66 19 -187 26 -270 l13 -150 71 -75 c81 -86
125 -140 150 -189 16 -31 16 -36 1 -70 -9 -20 -22 -63 -30 -96 -16 -74 -40
-122 -62 -127 -40 -8 -199 -657 -268 -1093 -133 -838 -149 -1526 -46 -1953 11
-46 20 -96 20 -112 0 -16 5 -61 12 -99 9 -54 9 -76 0 -96 -11 -23 -7 -38 28
-122 111 -265 239 -435 600 -793 170 -169 239 -245 278 -307 57 -88 69 -98
153 -132 64 -25 91 -51 140 -135 39 -66 113 -136 308 -287 236 -182 348 -302
405 -430 27 -62 56 -182 56 -233 0 -27 6 -40 26 -52 14 -9 54 -60 89 -113 90
-137 115 -158 221 -188 99 -27 125 -46 160 -115 38 -75 80 -115 219 -208 71
-48 143 -101 159 -118 27 -30 28 -33 21 -97 -4 -37 -29 -137 -56 -223 -27 -86
-72 -247 -100 -357 -110 -440 -193 -664 -305 -821 -64 -91 -106 -124 -157
-124 -57 -1 -109 -27 -187 -95 -66 -58 -149 -105 -186 -105 -24 0 -51 28 -88
92 -29 52 -60 67 -95 48 -16 -8 -19 -15 -12 -28 5 -9 41 -71 80 -137 39 -66
71 -125 71 -131 0 -18 -109 -33 -326 -44 -226 -11 -282 -17 -374 -35 -86 -18
-120 -31 -120 -48 0 -12 62 -15 353 -21 193 -3 444 -10 557 -15 l205 -9 22 27
c13 14 35 55 50 91 45 109 76 128 175 110 57 -11 68 -5 68 41 0 30 -12 42 -54
56 -52 17 -43 33 18 33 l56 0 0 -70 c0 -63 2 -70 20 -70 37 0 72 24 92 64 11
23 30 52 42 65 14 16 17 25 9 28 -55 20 -122 64 -141 93 -23 34 -23 35 -3 44
13 5 36 3 67 -8 62 -21 100 -20 116 2 9 12 28 17 62 18 42 0 53 5 76 31 26 29
76 141 66 150 -2 2 -22 -1 -44 -8 -33 -9 -45 -9 -68 4 -16 8 -47 24 -69 36
-44 24 -75 27 -93 9 -19 -19 -15 -5 22 79 l35 78 11 -30 c6 -17 19 -38 28 -49
15 -16 162 -96 178 -96 3 0 3 12 0 27 -3 16 1 39 8 52 13 24 14 24 21 -20 11
-72 43 -161 83 -229 21 -36 53 -91 71 -122 l32 -58 -58 0 c-57 0 -100 18 -178
74 -19 14 -29 7 -153 -105 -140 -126 -161 -140 -230 -158 -44 -12 -82 -41 -82
-63 0 -26 64 -58 116 -58 56 0 93 21 184 103 92 83 123 100 175 95 29 -4 58
-16 81 -34 124 -98 138 -103 220 -75 69 23 199 37 409 46 260 10 374 36 431
96 l29 32 -315 -9 c-347 -9 -491 -7 -504 6 -4 4 11 27 34 50 29 29 85 63 184
111 157 75 205 114 242 193 13 27 22 52 20 54 -7 6 -287 -97 -354 -130 -34
-17 -83 -49 -108 -71 -50 -44 -55 -43 -103 27 -83 121 -89 318 -21 616 49 217
157 521 288 815 40 87 47 113 39 127 -8 13 -8 29 1 63 7 25 12 66 12 90 0 40
3 47 28 57 16 7 90 12 182 12 147 1 157 2 189 25 18 13 40 39 47 58 13 29 12
37 -1 63 -22 42 -19 47 13 18 29 -28 92 -68 106 -68 5 0 6 33 3 75 -4 40 -3
76 1 79 5 3 35 -22 68 -55 98 -100 198 -149 300 -149 39 0 46 -4 74 -44 64
-89 179 -149 432 -226 212 -64 258 -82 335 -132 70 -45 94 -45 170 -1 l42 24
31 -101 c27 -85 45 -121 118 -228 47 -70 136 -202 198 -293 186 -278 272 -479
262 -619 -5 -65 -32 -134 -62 -159 -8 -7 -100 -41 -203 -76 -303 -102 -522
-198 -661 -290 -58 -38 -47 -58 21 -38 104 29 103 29 84 2 -24 -34 -21 -39 19
-39 51 0 74 15 74 50 0 34 7 36 56 15 34 -14 35 -14 87 26 29 22 84 55 122 74
62 30 264 101 336 118 26 7 27 6 19 -26 -4 -17 -17 -54 -29 -80 -34 -78 -26
-117 29 -147 17 -9 29 5 102 112 50 74 84 116 86 106 2 -9 -6 -69 -18 -134
-12 -65 -20 -143 -18 -173 l3 -56 -35 -3 c-19 -2 -86 -19 -148 -38 -62 -19
-127 -34 -144 -34 -20 0 -59 18 -110 51 -109 69 -154 89 -213 89 -72 0 -82 -9
-64 -56 22 -59 64 -82 230 -128 31 -9 105 -46 165 -82 169 -103 227 -128 304
-128 36 -1 73 4 83 10 16 9 9 14 -45 33 -94 34 -171 78 -212 120 l-37 38 148
22 c283 42 443 84 503 131 l25 20 -28 25 c-43 39 -69 40 -179 11 -55 -15 -103
-25 -106 -22 -3 4 18 40 47 81 106 152 116 222 42 289 -31 28 -26 41 27 67 35
18 48 30 50 49 2 22 -6 29 -59 55 -60 29 -110 77 -96 91 4 4 30 11 58 15 28 4
57 13 65 20 18 15 18 70 0 94 -14 19 -16 19 -73 -9 -33 -15 -68 -27 -78 -25
-10 2 -27 19 -37 37 -22 40 -15 57 42 102 71 56 87 112 46 160 -13 15 -36 65
-51 109 -26 74 -31 81 -56 81 -14 0 -53 -12 -84 -27 l-58 -26 -19 23 c-28 34
-23 65 15 91 54 37 87 72 87 91 0 29 15 21 34 -19 88 -188 349 -561 467 -669
44 -40 172 -97 207 -93 20 3 37 -5 66 -33 l40 -38 -35 0 c-20 0 -63 11 -97 25
-74 30 -132 33 -132 8 1 -10 7 -66 14 -125 15 -118 38 -175 80 -198 26 -14 28
-14 47 9 14 17 19 39 19 80 0 67 16 94 50 89 20 -2 27 -13 38 -50 18 -66 41
-70 131 -23 89 47 111 79 111 164 0 40 -4 63 -12 66 -7 2 -32 9 -55 15 -23 6
-95 46 -160 89 -106 71 -143 88 -247 118 -33 9 -84 85 -241 358 -179 312 -325
609 -454 928 -47 116 -50 129 -36 143 9 9 27 38 41 65 20 40 29 49 50 49 29 0
28 -6 4 90 -17 66 -6 150 38 290 22 69 45 151 51 184 12 64 24 86 50 86 33 1
101 39 101 57 0 10 13 46 30 81 23 48 56 89 154 186 118 119 160 178 190 269
3 9 15 17 28 17 27 0 97 31 138 60 28 20 29 22 16 59 -22 59 -10 87 65 161 56
55 69 73 69 99 0 17 5 31 11 31 6 0 32 9 59 21 37 16 49 27 53 47 3 15 11 42
18 60 20 47 -7 90 -91 147 -65 44 -90 76 -90 115 0 30 15 32 46 5 16 -14 41
-25 57 -25 26 0 27 2 27 55 0 37 -13 97 -41 184 -46 139 -46 165 -4 207 l24
24 -34 73 c-51 110 -78 225 -100 430 l-6 57 -74 0 c-67 0 -75 2 -94 26 l-21
26 50 47 c27 25 59 69 72 96 20 44 23 64 22 173 l-1 122 78 0 79 0 0 35 c0 72
36 108 120 121 l40 7 0 191 c0 309 25 442 115 621 l55 110 -11 64 c-8 44 -34
108 -81 200 -121 240 -126 268 -87 519 29 192 19 241 -77 388 -63 95 -218 249
-323 318 -83 56 -81 41 -29 206 37 115 93 257 225 575 107 255 145 356 189
498 26 84 26 88 9 107 -20 22 -74 40 -120 40 -16 0 -74 -15 -127 -34 -54 -18
-98 -30 -98 -26 0 4 27 49 60 99 l59 90 -14 50 c-22 73 -56 143 -127 268 -67
115 -115 241 -125 324 -5 41 -10 49 -35 60 -17 7 -71 39 -120 71 -50 33 -106
65 -127 72 -47 17 -83 6 -216 -63 -75 -39 -115 -54 -158 -58 -52 -5 -63 -11
-103 -51 -71 -70 -101 -137 -194 -429 -47 -148 -70 -195 -70 -144 0 30 -28 88
-61 126 -36 41 -127 75 -141 53 -32 -49 -40 -121 -48 -403 -15 -548 -80 -859
-327 -1575 l-84 -245 -83 -80 c-206 -201 -465 -321 -957 -445 -86 -22 -210
-56 -275 -76 -201 -61 -313 -56 -481 21 -177 81 -360 250 -433 398 -78 160
-96 285 -105 757 -7 395 -19 469 -125 795 -43 132 -88 287 -100 345 -38 181
-87 288 -200 438 -189 251 -502 436 -808 477 l-53 7 68 72 c183 193 286 393
270 526 -3 27 -15 66 -26 88 -20 39 -83 102 -102 102 -21 0 -62 -53 -91 -118
-37 -83 -72 -122 -109 -122 -32 0 -34 8 -44 180 -6 113 -38 191 -94 228 -42
27 -71 28 -104 2z m5247 -949 c3 -4 -10 -48 -30 -97 -67 -169 -194 -417 -377
-737 -102 -177 -201 -351 -221 -387 -39 -70 -40 -70 -36 7 1 43 -2 53 -19 63
-29 15 -37 8 -50 -44 -17 -69 -13 -120 14 -203 l26 -76 -32 -106 c-17 -58 -34
-136 -37 -172 -4 -65 -4 -67 31 -105 l36 -39 1 77 c0 76 1 80 46 145 81 119
123 213 228 516 107 307 132 360 229 487 57 74 83 127 93 188 4 27 18 55 38
76 58 62 73 91 84 153 18 102 44 150 94 173 56 25 63 25 76 -5 18 -39 15 -66
-18 -155 -17 -45 -30 -101 -30 -126 0 -40 2 -44 24 -44 13 0 41 7 61 16 30 12
40 13 46 3 14 -23 -46 -121 -140 -229 -140 -163 -180 -255 -148 -348 14 -41
14 -42 -8 -42 -13 0 -47 -18 -76 -40 -30 -22 -59 -40 -65 -40 -19 0 -74 -166
-74 -224 0 -46 -3 -53 -29 -68 -41 -23 -62 -69 -72 -157 -7 -66 -12 -79 -43
-110 -75 -79 -144 -232 -131 -292 7 -33 48 -72 69 -67 11 2 49 78 106 211 106
248 218 468 323 634 78 125 179 267 197 278 18 11 11 26 -30 62 -22 20 -40 40
-40 46 0 5 36 49 81 97 83 92 113 110 180 110 31 0 39 -4 39 -18 0 -10 14 -31
30 -47 17 -16 30 -36 30 -44 0 -9 -34 -59 -75 -111 -41 -52 -87 -120 -103
-150 -24 -49 -27 -66 -27 -155 l0 -100 -38 -50 c-48 -65 -94 -160 -103 -213
-5 -35 -10 -42 -29 -42 -13 0 -36 -16 -58 -40 -19 -22 -40 -40 -45 -40 -5 0
-12 -17 -15 -39 -3 -23 -25 -69 -53 -112 -57 -87 -61 -121 -18 -156 16 -12 32
-23 35 -23 4 0 13 15 20 33 21 52 99 180 214 352 128 192 199 332 222 438 13
59 20 77 33 77 10 0 52 11 93 25 108 35 110 33 81 -78 -58 -215 -150 -474
-279 -782 -53 -126 -108 -258 -123 -293 -25 -62 -26 -63 -56 -55 -17 4 -85 8
-151 7 -100 -1 -141 -6 -245 -32 -68 -18 -132 -32 -142 -32 -12 0 -1 15 32 46
46 43 78 106 68 135 -2 6 -36 -6 -75 -26 -88 -44 -152 -112 -176 -185 -18 -55
-23 -140 -9 -140 5 0 134 31 288 69 153 38 311 74 351 81 l72 13 83 -49 c52
-31 115 -82 173 -139 76 -75 98 -106 138 -185 26 -52 55 -124 64 -160 21 -84
21 -270 0 -364 l-15 -69 44 -54 c72 -88 97 -150 144 -353 l29 -125 -28 -45
c-16 -25 -43 -71 -60 -102 -33 -59 -85 -111 -106 -106 -22 5 -203 204 -224
247 -15 28 -28 41 -42 41 -12 0 -37 14 -56 30 -19 17 -38 28 -43 25 -5 -3 -25
19 -44 49 -44 69 -108 116 -211 155 -182 70 -295 80 -295 26 0 -6 37 -26 83
-44 308 -124 572 -342 753 -621 48 -74 154 -275 154 -291 0 -5 -15 -9 -32 -9
-47 -1 -100 -31 -88 -50 23 -36 12 -56 -49 -82 -56 -24 -60 -29 -94 -99 -41
-85 -64 -185 -73 -326 l-7 -98 -44 -37 c-93 -79 -112 -69 -257 129 -116 159
-151 203 -158 203 -10 0 13 -122 31 -169 37 -97 75 -147 238 -308 135 -133
168 -173 193 -225 34 -71 39 -137 15 -203 -8 -22 -15 -45 -15 -50 0 -6 36 -35
81 -65 65 -44 79 -58 75 -75 -11 -47 -45 -255 -51 -320 -8 -92 9 -194 45 -274
17 -35 30 -64 30 -65 0 -2 -9 -2 -20 -2 -17 1 -25 -14 -48 -81 -46 -135 -119
-222 -219 -262 -26 -11 -33 -19 -33 -42 0 -31 8 -40 59 -71 40 -23 33 -31 -37
-42 -24 -4 -75 -22 -113 -41 -66 -34 -69 -37 -69 -71 0 -24 8 -46 25 -66 31
-36 33 -58 5 -51 -11 3 -31 -2 -45 -11 -21 -14 -25 -24 -25 -69 l0 -53 -52
-11 c-29 -6 -74 -20 -101 -32 -59 -26 -71 -52 -62 -143 l6 -67 -48 -6 c-111
-14 -107 -11 -114 -101 -7 -93 -36 -165 -92 -232 -21 -24 -37 -46 -37 -48 0
-3 9 -22 20 -44 29 -57 25 -99 -20 -199 -30 -66 -40 -102 -40 -140 0 -39 -4
-51 -15 -51 -24 0 -91 -67 -149 -149 -81 -115 -104 -126 -297 -136 l-126 -6
-7 24 c-3 14 -22 45 -42 68 l-36 44 -97 6 c-211 15 -429 122 -625 309 -50 48
-101 90 -113 94 -16 5 -30 -1 -56 -24 -19 -16 -41 -30 -49 -30 -26 0 -110 137
-142 233 -4 14 -10 16 -25 7 -45 -23 -72 -12 -137 56 -35 36 -68 63 -74 59
-18 -11 -11 -75 21 -176 18 -55 29 -102 25 -106 -11 -11 -46 30 -97 113 -54
89 -113 150 -156 160 -16 3 -34 7 -40 10 -19 5 -16 -5 10 -40 27 -36 167 -255
167 -262 0 -6 -171 139 -193 164 -11 11 -23 40 -28 63 -13 57 -25 69 -66 69
l-35 0 7 -47 c4 -27 11 -55 16 -65 11 -20 -7 -28 -64 -28 -54 0 -58 3 -101 78
-57 96 -104 115 -122 49 l-9 -31 -25 64 c-24 61 -95 150 -120 150 -6 0 -10
-28 -10 -67 l-1 -68 -13 38 c-14 39 -92 147 -107 147 -4 0 -15 -10 -23 -22
-13 -18 -13 -25 -1 -56 15 -33 13 -52 -5 -52 -5 0 -16 22 -25 50 -19 56 -45
80 -88 80 -31 0 -32 -1 -11 -83 17 -71 -61 1 -119 108 l-42 80 -45 3 c-35 2
-54 -3 -80 -21 -62 -41 -66 -41 -89 13 -12 27 -21 55 -21 62 0 26 -50 119 -76
143 -50 47 -71 -12 -38 -109 9 -26 14 -49 12 -52 -8 -8 -122 119 -140 156 -10
19 -24 52 -32 73 -13 33 -19 37 -50 37 -27 0 -40 -6 -52 -26 l-17 -26 -40 46
c-21 26 -52 53 -68 61 -31 16 -96 20 -117 6 -10 -6 -51 29 -143 117 l-129 126
26 27 c42 44 41 88 -3 219 -30 91 -38 130 -38 187 l0 71 -50 4 c-27 2 -80 13
-116 23 -62 17 -67 17 -99 1 -39 -19 -41 -17 -64 45 -19 52 -37 72 -79 88 -28
11 -29 11 -22 -21 21 -96 75 -214 102 -222 10 -2 34 -8 53 -11 66 -13 180 -74
200 -108 20 -32 25 -82 13 -125 -5 -21 -10 -23 -42 -17 -59 11 -130 56 -171
108 -22 27 -66 102 -99 167 -59 115 -62 118 -115 144 -62 30 -112 84 -196 211
-63 94 -129 166 -176 194 l-34 20 0 -22 c0 -48 23 -100 65 -147 70 -79 75
-100 10 -45 -66 57 -170 180 -239 283 -269 405 -404 1064 -367 1795 28 552
114 1062 267 1584 88 300 218 651 245 664 145 65 195 112 295 283 36 61 68
113 70 115 9 9 32 -22 44 -60 20 -61 49 -76 117 -61 174 36 258 136 358 422
62 177 104 265 156 323 41 48 42 49 37 110 -10 127 -98 237 -188 237 -34 0
-79 -20 -99 -43 -18 -22 10 -82 64 -137 55 -56 74 -101 49 -115 -90 -53 -169
-143 -203 -233 -22 -56 -28 -150 -12 -180 6 -13 -3 -35 -38 -87 -55 -84 -88
-101 -125 -66 -13 12 -28 40 -34 62 -10 39 -9 41 42 97 70 77 86 101 86 135 0
23 -21 79 -36 96 -6 6 -69 -43 -145 -114 -41 -39 -91 -78 -110 -88 -33 -16
-34 -16 -48 6 -32 49 -111 114 -189 157 -45 25 -82 48 -82 52 0 4 19 10 42 13
58 9 81 28 81 65 0 16 -2 32 -5 35 -3 3 -59 17 -124 31 -87 18 -164 27 -286
31 -187 6 -283 -4 -385 -43 -35 -13 -63 -20 -63 -15 0 19 131 130 184 156 48
24 76 30 148 33 84 4 90 6 111 33 60 78 72 91 92 99 19 7 24 20 32 89 18 141
74 219 199 277 92 43 206 63 411 71 l163 6 40 -43 c37 -40 47 -45 192 -86 333
-96 463 -150 579 -240 91 -72 124 -129 194 -339 19 -55 48 -132 65 -170 52
-116 146 -355 174 -443 55 -176 68 -261 96 -657 24 -335 37 -472 56 -585 51
-292 166 -513 316 -602 169 -100 357 -162 823 -269 513 -117 725 -200 911
-357 60 -50 78 -60 124 -66 64 -9 110 -31 215 -105 44 -32 97 -65 118 -74 l37
-17 0 28 c-1 41 -33 104 -70 135 -18 15 -84 52 -147 83 -101 48 -117 60 -141
99 -21 34 -33 44 -53 45 -48 0 -180 39 -237 70 -31 17 -90 57 -131 89 -60 48
-83 60 -122 65 -81 11 -237 54 -297 81 l-57 27 200 67 c284 97 353 123 504
196 264 128 459 282 579 458 52 75 173 517 252 918 61 306 121 737 137 980 3
55 9 99 12 99 8 0 77 -167 86 -207 l7 -33 36 25 c77 52 111 133 137 319 50
365 36 332 183 427 181 118 246 147 329 148 28 1 54 -3 57 -8z m-2800 -8124
c51 -69 69 -112 61 -149 -5 -22 -12 -28 -27 -26 -35 5 -57 48 -72 138 -8 47
-17 94 -21 105 -6 19 -5 19 7 2 7 -11 30 -42 52 -70z m2330 -766 c47 -101 85
-185 84 -187 -8 -8 -124 144 -153 201 -29 55 -35 77 -35 128 0 36 4 57 9 52 5
-6 48 -93 95 -194z m155 -320 l50 -99 -28 11 c-25 9 -38 6 -95 -23 -72 -37
-91 -35 -108 9 -7 21 -1 31 52 82 39 37 62 69 66 88 4 17 8 31 10 31 2 0 26
-45 53 -99z m-3208 -637 c87 -8 92 -12 77 -55 -11 -28 -18 -34 -47 -37 -28 -2
-177 32 -190 44 -2 1 7 17 19 34 18 25 27 30 49 26 14 -3 56 -8 92 -12z m-218
-352 l41 -27 -63 -3 c-35 -2 -66 -1 -68 2 -3 3 5 27 18 53 20 40 24 44 27 25
2 -13 20 -34 45 -50z"/>
<path d="M1240 11596 c-61 -17 -89 -33 -128 -70 -45 -41 -62 -77 -62 -126 0
-90 80 -170 170 -170 55 0 95 23 109 60 10 31 2 72 -18 84 -5 3 -12 20 -16 37
-14 63 73 81 141 29 21 -17 57 -44 78 -60 42 -33 63 -37 89 -17 15 11 16 17 4
63 -29 110 -118 175 -247 180 -41 2 -95 -2 -120 -10z"/>
<path d="M1493 11285 c-59 -25 -93 -115 -73 -193 21 -86 72 -131 153 -135 l42
-2 3 46 c2 29 -5 65 -18 98 -25 65 -25 97 0 139 11 18 20 34 20 37 0 5 -70 25
-85 25 -5 -1 -24 -7 -42 -15z"/>
<path d="M5820 10656 c0 -2 11 -57 25 -122 14 -64 27 -148 28 -186 2 -67 3
-69 27 -66 33 4 70 61 70 109 0 90 -36 194 -82 235 -22 21 -68 41 -68 30z"/>
<path d="M5783 9632 c-50 -68 -66 -115 -71 -204 l-4 -87 -69 -75 c-78 -86 -90
-106 -91 -148 -1 -21 6 -36 22 -48 l24 -18 86 123 c139 199 176 303 150 428
-6 31 -15 57 -19 57 -4 0 -16 -13 -28 -28z"/>
<path d="M6629 9226 c-84 -29 -159 -72 -248 -141 -53 -41 -82 -56 -123 -64
-102 -19 -138 -46 -138 -105 0 -28 0 -29 46 -22 25 3 94 18 152 32 96 24 116
25 197 18 50 -5 122 -9 162 -9 62 0 75 3 97 24 14 14 26 28 26 32 0 19 -61 38
-140 44 -47 4 -96 13 -109 20 -23 12 -22 12 23 34 81 38 153 51 279 51 l119 0
-24 30 c-62 79 -191 102 -319 56z"/>
<path d="M5478 8905 c-236 -45 -479 -195 -466 -288 l3 -23 190 57 c105 32 247
70 315 85 115 26 142 28 342 29 l217 0 -22 24 c-53 59 -89 83 -166 108 -67 22
-314 27 -413 8z"/>
<path d="M727 8892 c-16 -26 -31 -143 -30 -232 1 -160 43 -267 121 -313 l31
-18 -20 47 c-19 41 -21 68 -23 243 -1 172 -3 200 -20 227 -20 33 -52 58 -59
46z"/>
<path d="M6806 8722 c-8 -13 91 -105 236 -221 122 -97 211 -189 243 -250 7
-15 19 -49 25 -74 13 -51 41 -82 83 -92 33 -9 34 -3 8 88 -69 241 -239 424
-481 519 -89 35 -107 40 -114 30z"/>
<path d="M1730 8623 c0 -91 -15 -165 -43 -220 -21 -40 -32 -47 -55 -34 -18 10
-30 31 -91 162 -17 37 -42 74 -55 82 -23 15 -24 15 -42 -25 -86 -191 139 -445
334 -377 45 16 52 62 22 148 -22 64 -22 68 -6 120 9 30 16 83 16 118 0 55 -4
68 -25 88 -45 46 -55 35 -55 -62z"/>
<path d="M5633 8260 c6 -47 22 -70 47 -70 46 0 281 -153 419 -273 104 -91 164
-157 323 -357 157 -198 292 -322 333 -306 13 5 6 20 -36 83 -314 470 -566 721
-879 878 -68 34 -192 85 -207 85 -3 0 -3 -18 0 -40z"/>
<path d="M485 8168 c10 -118 39 -199 93 -259 24 -27 47 -49 52 -49 15 0 30 62
30 124 0 103 -73 225 -154 256 l-29 11 8 -83z"/>
<path d="M2701 8013 c79 -230 158 -342 281 -402 35 -17 89 -34 121 -39 l57 -9
0 31 c0 65 -56 106 -144 106 -52 0 -56 2 -90 42 -20 23 -63 97 -95 164 -56
114 -111 192 -152 215 -15 8 -12 -11 22 -108z"/>
<path d="M986 8081 c-25 -47 -20 -117 12 -186 16 -33 34 -77 41 -98 9 -27 18
-37 34 -37 12 -1 40 -7 62 -15 39 -15 40 -14 62 12 12 15 38 58 58 96 43 84
46 132 10 171 -41 44 -75 28 -75 -35 0 -50 -8 -69 -31 -69 -22 0 -43 30 -59
86 -15 49 -46 90 -77 99 -17 5 -25 0 -37 -24z"/>
<path d="M4190 8074 c0 -46 24 -98 60 -128 26 -21 28 -26 20 -67 -5 -24 -12
-70 -15 -103 -9 -82 -34 -106 -112 -106 -79 1 -123 23 -227 116 -48 44 -97 84
-109 91 -31 17 -66 15 -106 -6 l-34 -18 44 -30 c24 -17 86 -65 137 -106 205
-165 326 -192 458 -101 l51 34 2 94 c1 52 -3 106 -9 120 -5 14 -8 26 -6 26 1
0 46 -18 100 -40 117 -47 157 -75 227 -160 30 -36 61 -71 69 -78 22 -19 101
-55 107 -48 13 13 -63 141 -116 195 -68 69 -111 99 -284 198 -72 41 -155 93
-184 114 -29 21 -57 39 -63 39 -5 0 -10 -16 -10 -36z"/>
<path d="M3380 7860 c0 -54 22 -103 75 -171 54 -69 65 -96 65 -160 l0 -49 -37
0 c-21 0 -73 5 -117 12 l-79 12 -25 -29 -24 -29 28 -22 c15 -13 50 -28 76 -34
55 -14 257 -18 276 -7 17 11 16 129 -3 200 -30 117 -123 253 -204 300 l-31 18
0 -41z"/>
<path d="M1620 7866 c0 -14 7 -54 15 -90 16 -68 9 -111 -19 -122 -8 -3 -36 10
-62 30 -49 37 -72 43 -105 26 -26 -14 -24 -34 9 -105 32 -67 82 -117 136 -135
62 -20 78 -12 105 55 30 72 42 245 21 296 -25 60 -100 94 -100 45z"/>
<path d="M6580 7850 c-25 -47 -5 -75 73 -100 28 -9 55 -33 108 -96 86 -103
127 -118 163 -61 9 14 -3 31 -69 98 -91 92 -138 126 -212 157 -51 20 -53 20
-63 2z"/>
<path d="M426 7754 c-12 -30 -6 -181 9 -237 38 -148 132 -247 234 -247 l29 0
-17 68 c-30 112 -74 180 -128 197 -18 5 -23 14 -23 43 0 45 -30 113 -69 158
-23 25 -31 29 -35 18z"/>
<path d="M6992 7693 c23 -83 58 -129 152 -197 l38 -29 -7 44 c-15 96 -60 165
-127 200 -58 30 -68 26 -56 -18z"/>
<path d="M5736 7329 c-10 -53 -8 -59 48 -117 107 -113 255 -364 314 -533 30
-84 58 -236 46 -248 -3 -3 -38 -7 -79 -9 -94 -5 -173 17 -224 63 -21 19 -41
35 -45 35 -16 0 -3 -59 24 -107 17 -30 28 -58 26 -62 -3 -5 -26 -4 -51 2 -50
11 -67 3 -79 -39 -6 -18 0 -22 51 -34 113 -25 210 -14 408 46 l81 24 -8 91
c-21 274 -115 481 -333 734 -83 97 -164 185 -169 185 -2 0 -6 -14 -10 -31z"/>
<path d="M5114 7253 c32 -61 80 -128 157 -218 148 -172 179 -222 214 -341 44
-153 76 -208 140 -242 32 -16 95 -33 95 -25 0 2 -52 107 -115 232 -129 256
-221 402 -319 508 -59 63 -192 173 -210 173 -4 0 13 -39 38 -87z"/>
<path d="M2465 7098 c10 -45 77 -223 105 -278 38 -75 60 -99 113 -127 29 -14
93 -64 142 -111 141 -135 466 -368 565 -407 72 -27 150 -23 223 14 56 28 134
88 125 95 -36 31 -107 33 -203 7 -123 -34 -122 -34 -232 45 -54 39 -141 99
-193 134 -223 148 -338 247 -415 355 -53 75 -101 168 -116 229 -10 39 -17 49
-47 61 -19 8 -43 15 -54 15 -17 0 -19 -5 -13 -32z"/>
<path d="M674 6823 c4 -21 23 -71 42 -110 53 -109 120 -152 242 -153 51 0 62
3 62 17 0 9 12 36 26 60 14 24 26 57 26 73 1 36 -27 70 -57 70 -26 0 -39 -13
-52 -55 -16 -50 -41 -43 -113 31 -62 64 -124 103 -164 104 -16 0 -17 -5 -12
-37z"/>
<path d="M3931 6798 c39 -101 95 -191 223 -361 118 -158 132 -173 170 -183 23
-5 97 -34 166 -63 154 -66 226 -76 280 -39 19 13 45 41 57 63 l22 40 -21 8
c-14 5 -44 0 -84 -13 -77 -26 -107 -20 -156 33 -37 39 -39 40 -92 34 -147 -15
-210 35 -354 280 -72 122 -140 203 -200 236 l-32 18 21 -53z"/>
<path d="M4678 6562 c-16 -2 -28 -5 -28 -8 0 -8 76 -111 134 -182 106 -127
228 -212 336 -232 75 -14 138 3 210 56 l60 44 88 -1 c98 -1 139 12 148 48 12
45 -42 73 -143 73 -69 0 -99 13 -119 51 l-16 33 -14 -25 c-7 -13 -18 -45 -24
-71 -16 -66 -39 -83 -110 -82 -91 2 -152 36 -277 157 -133 128 -169 148 -245
139z"/>
<path d="M1685 6438 c29 -51 32 -113 9 -182 -16 -47 -17 -48 -51 -43 -50 8
-75 28 -137 106 -50 62 -117 111 -153 111 -14 0 1 -89 23 -132 51 -99 120
-144 207 -135 95 10 176 33 202 57 50 47 54 154 8 231 -16 27 -22 29 -75 29
l-57 0 24 -42z"/>
<path d="M1103 6386 c3 -41 14 -94 24 -118 37 -83 131 -138 212 -123 74 13 73
10 38 72 -42 74 -109 142 -195 197 -39 25 -74 46 -78 46 -4 0 -4 -33 -1 -74z"/>
<path d="M3786 6413 c27 -121 154 -242 252 -243 35 0 65 12 95 38 16 14 9 20
-105 79 -67 35 -148 83 -180 108 -32 25 -60 45 -63 45 -3 0 -3 -12 1 -27z"/>
<path d="M6302 5963 c-8 -3 10 -21 47 -45 84 -54 136 -116 269 -318 126 -191
220 -295 310 -343 l52 -28 11 28 c24 64 -12 118 -138 201 -79 53 -104 84 -194
243 -117 206 -187 270 -295 268 -27 0 -55 -3 -62 -6z"/>
<path d="M6760 5883 c0 -13 110 -129 150 -157 45 -33 129 -71 137 -62 2 2 -9
30 -25 62 -35 70 -92 130 -136 143 -35 11 -126 21 -126 14z"/>
<path d="M5723 5641 c228 -173 347 -303 347 -381 0 -58 56 -139 107 -154 28
-9 87 20 76 37 -32 52 -215 314 -254 363 -117 147 -237 226 -366 240 l-58 7
148 -112z"/>
<path d="M2005 5224 c8 -20 15 -38 15 -40 0 -1 29 -37 64 -79 36 -41 68 -84
71 -95 8 -24 14 -25 51 -5 45 23 57 19 123 -40 34 -30 71 -55 83 -55 19 0 20
4 16 54 -6 76 -42 126 -131 184 -70 45 -239 112 -285 112 -22 0 -22 -1 -7 -36z"/>
<path d="M2430 5139 c45 -154 195 -277 353 -287 52 -3 83 0 110 12 l38 15 27
-43 c15 -24 35 -58 44 -75 20 -37 73 -71 111 -71 15 0 27 2 27 4 0 27 -42 102
-88 161 -39 47 -63 88 -71 119 -6 25 -13 46 -15 46 -2 0 -23 -7 -47 -16 -24
-9 -76 -16 -115 -17 -84 0 -154 28 -280 114 -43 30 -84 57 -90 62 -10 5 -11 0
-4 -24z"/>
<path d="M6596 4989 c-15 -25 -16 -35 -6 -58 14 -35 47 -51 107 -51 l46 0 -7
32 c-8 39 -40 76 -83 94 -41 18 -36 19 -57 -17z"/>
<path d="M3125 4864 c158 -287 238 -374 357 -390 24 -3 53 -2 66 3 22 8 20 11
-27 32 -65 29 -120 84 -209 209 -71 99 -131 160 -193 196 l-33 19 39 -69z"/>
<path d="M6491 4862 c-5 -9 -12 -35 -16 -57 -12 -73 -13 -75 -46 -68 -43 8
-149 -42 -149 -71 0 -41 20 -93 46 -117 70 -65 206 15 221 131 4 25 10 39 17
37 29 -11 75 22 100 72 15 28 26 52 26 54 0 3 -32 7 -71 9 -39 3 -76 11 -82
17 -16 16 -35 14 -46 -7z"/>
<path d="M3394 4755 c-9 -23 67 -133 182 -259 149 -164 167 -186 241 -285 2
-3 8 0 14 6 14 14 -47 144 -111 237 -54 78 -177 205 -267 276 -44 35 -54 39
-59 25z"/>
<path d="M6115 4478 c-8 -19 -19 -24 -57 -26 l-48 -3 0 -79 c0 -79 0 -80 32
-96 62 -32 216 -6 234 40 15 39 -96 186 -140 186 -6 0 -16 -10 -21 -22z"/>
<path d="M4380 4416 c0 -13 36 -101 62 -151 39 -75 42 -135 9 -188 l-23 -37
22 0 c54 0 112 43 124 92 22 94 -96 288 -176 288 -10 0 -18 -2 -18 -4z"/>
<path d="M4096 4242 c-10 -16 48 -85 160 -189 146 -136 162 -149 170 -129 15
39 -121 198 -236 276 -70 48 -86 55 -94 42z"/>
<path d="M5817 4201 c-4 -16 -31 -54 -66 -89 -55 -56 -63 -60 -94 -55 -23 3
-49 -2 -80 -16 -56 -26 -60 -26 -81 -2 -53 59 -185 77 -230 32 -19 -20 -20
-23 -4 -32 24 -14 44 -35 90 -96 23 -30 49 -58 59 -63 26 -14 66 -12 99 5 27
14 32 13 63 -5 105 -62 277 -16 460 121 37 28 67 55 67 60 0 5 -11 9 -25 9
-34 0 -74 21 -105 55 -37 40 -120 105 -135 105 -7 0 -15 -13 -18 -29z"/>
<path d="M4114 2064 c16 -61 53 -119 129 -202 45 -48 84 -88 88 -90 11 -5 -19
126 -40 172 -26 59 -65 101 -116 125 -59 28 -69 27 -61 -5z"/>
<path d="M8110 1982 c-143 -71 -252 -162 -423 -352 -72 -80 -144 -160 -161
-178 -26 -27 -28 -34 -16 -42 34 -21 61 -9 136 60 41 39 82 70 91 70 8 0 26
-9 40 -20 45 -35 118 -50 249 -50 99 0 139 -5 215 -25 175 -48 212 -52 266
-29 26 11 48 26 48 34 0 25 -153 69 -332 96 -295 44 -407 64 -416 73 -5 5 26
35 74 70 136 99 187 142 222 185 41 51 99 146 89 146 -4 0 -41 -17 -82 -38z"/>
<path d="M5306 1999 c-67 -16 -157 -66 -261 -144 -145 -109 -168 -119 -263
-110 -141 12 -261 -20 -316 -85 -58 -70 -21 -82 119 -40 81 25 111 30 132 23
16 -6 28 -16 28 -23 0 -7 -49 -39 -110 -72 -60 -32 -128 -77 -150 -98 -37 -38
-38 -40 -16 -40 13 0 41 5 62 12 31 9 44 8 64 -2 24 -13 28 -11 68 26 68 65
124 106 282 209 179 117 287 200 375 289 68 70 67 74 -14 55z"/>
<path d="M5647 1899 c-82 -19 -135 -59 -151 -114 -6 -20 0 -20 236 -23 262 -3
315 3 363 43 29 24 29 25 11 40 -64 49 -340 82 -459 54z"/>
<path d="M4344 1736 c-204 -89 -336 -171 -452 -281 -59 -57 -74 -76 -65 -85 9
-10 34 0 113 41 135 72 534 340 538 362 2 9 0 17 -5 17 -4 -1 -62 -25 -129
-54z"/>
<path d="M2324 1705 c8 -37 40 -71 74 -78 15 -3 89 -3 165 0 134 6 137 7 137
29 0 13 -11 36 -24 51 l-24 28 -167 0 -166 0 5 -30z"/>
<path d="M1940 1682 c0 -16 12 -53 28 -83 22 -44 32 -54 52 -54 27 0 28 4 9
75 -19 74 -89 122 -89 62z"/>
<path d="M5440 1619 c-208 -8 -349 -28 -460 -65 -126 -42 -226 -115 -157 -114
12 0 55 5 95 10 106 14 284 27 651 50 331 20 340 22 341 61 0 27 -23 39 -72
39 -36 0 -48 4 -48 15 0 17 -30 17 -350 4z"/>
<path d="M1198 1610 c-88 -16 -217 -105 -191 -131 8 -8 20 -8 45 0 22 7 112
11 245 10 189 -1 215 1 254 19 42 18 93 62 73 62 -5 0 -54 9 -109 20 -117 24
-251 32 -317 20z"/>
<path d="M7441 1383 c-21 -4 -23 -9 -18 -46 3 -23 13 -46 21 -53 22 -16 200
-26 310 -19 50 4 143 2 206 -4 110 -10 240 -43 240 -61 0 -5 -35 -39 -77 -77
-167 -146 -201 -193 -188 -261 l6 -35 59 61 c33 33 128 112 213 175 100 75
171 136 201 174 l46 58 -98 7 c-53 4 -198 24 -322 43 -179 29 -261 37 -400 40
-96 2 -186 1 -199 -2z"/>
<path d="M6842 1305 c-21 -45 -13 -64 48 -130 32 -35 62 -75 66 -89 4 -18 15
-28 33 -32 81 -16 209 -67 391 -154 184 -88 316 -140 357 -140 10 0 12 6 8 21
-7 21 -5 22 31 15 22 -5 52 -10 67 -13 28 -6 67 18 67 41 0 7 -105 47 -233 89
-219 73 -417 157 -417 176 0 29 260 53 475 45 193 -8 325 1 325 20 0 13 -34
20 -235 48 -53 8 -192 13 -340 12 -245 0 -275 -3 -438 -40 -25 -6 -34 -1 -70
42 -67 77 -104 114 -114 114 -6 0 -15 -11 -21 -25z"/>
<path d="M1665 1288 c-167 -11 -323 -53 -435 -118 l-55 -31 95 5 c59 3 120 13
160 26 58 20 84 22 248 21 159 -1 188 1 225 17 23 11 50 28 60 39 17 20 17 21
-10 28 -53 14 -188 20 -288 13z"/>
<path d="M4810 1160 c-125 -8 -200 -26 -265 -64 -43 -26 -105 -96 -84 -96 6 0
60 14 118 31 210 62 248 70 348 76 72 4 107 10 115 21 10 11 9 17 -7 28 -20
15 -43 15 -225 4z"/>
<path d="M5156 1094 c-9 -8 -16 -18 -16 -22 0 -8 421 -283 590 -386 152 -92
362 -198 373 -187 5 5 4 18 -2 29 -18 33 -151 151 -246 217 -145 101 -623 365
-661 365 -13 0 -30 -7 -38 -16z"/>
<path d="M3185 1049 c-251 -11 -467 -44 -585 -88 -52 -19 -130 -74 -130 -90 0
-8 259 17 510 49 349 45 514 59 631 53 70 -3 130 -1 155 6 39 10 113 58 114
74 0 9 -474 7 -695 -4z"/>
<path d="M4615 973 c-192 -8 -330 -41 -408 -96 -46 -33 -114 -113 -105 -123 3
-2 37 9 76 25 144 60 407 128 534 140 87 8 115 23 84 47 -12 8 -39 13 -65 12
-25 -1 -77 -3 -116 -5z"/>
<path d="M1948 895 c-64 -13 -134 -49 -248 -125 -47 -31 -149 -92 -228 -135
-157 -86 -222 -137 -253 -196 -11 -22 -17 -39 -15 -39 17 0 279 101 380 146
170 78 363 180 414 221 42 34 88 106 77 122 -8 15 -71 17 -127 6z"/>
<path d="M865 863 c20 -48 59 -89 110 -115 67 -35 274 -97 282 -85 10 17 -110
121 -185 160 -63 32 -130 57 -195 71 l-27 7 15 -38z"/>
<path d="M7030 891 c-57 -12 -94 -36 -188 -123 -65 -61 -116 -98 -191 -137
-112 -60 -169 -108 -201 -171 -11 -22 -18 -40 -16 -40 2 0 33 16 68 36 34 20
121 65 192 101 198 101 312 197 370 311 9 17 13 31 9 31 -5 -1 -24 -4 -43 -8z"/>
<path d="M3105 747 c-237 -103 -381 -196 -542 -351 -62 -59 -113 -112 -113
-117 0 -14 62 -11 111 6 25 9 83 46 130 83 47 37 150 105 229 152 79 47 169
108 199 136 56 51 130 144 114 144 -4 -1 -62 -24 -128 -53z"/>
<path d="M4485 719 c60 -61 110 -88 263 -140 143 -50 201 -79 245 -124 19 -19
37 -35 41 -35 6 0 5 8 -9 73 -4 20 -22 38 -62 64 -71 45 -67 47 123 63 201 17
415 -1 518 -45 21 -9 40 -15 41 -13 2 2 -12 25 -31 51 -45 62 -109 102 -195
121 -92 21 -193 20 -459 -6 -249 -24 -360 -19 -455 22 -70 30 -74 25 -20 -31z"/>
<path d="M2430 698 c-333 -71 -595 -160 -858 -292 -181 -91 -402 -230 -402
-252 0 -18 -4 -19 81 20 172 79 353 127 534 142 86 7 89 6 75 -11 -8 -10 -53
-43 -100 -73 -97 -62 -136 -95 -156 -134 -20 -38 -18 -42 21 -72 l35 -27 68
45 c37 24 134 99 216 166 219 180 287 227 363 255 89 32 127 72 120 126 -4 31
-2 39 13 44 10 3 23 11 28 18 14 17 25 57 15 56 -4 -1 -28 -5 -53 -11z"/>
<path d="M7185 590 c-119 -29 -247 -136 -350 -293 -28 -42 -35 -61 -27 -69 20
-20 273 179 383 303 63 71 62 77 -6 59z"/>
<path d="M3437 530 c-63 -16 -147 -67 -147 -90 0 -13 324 -32 543 -32 199 1
420 14 470 29 16 4 14 8 -15 27 -72 49 -58 47 -678 70 -74 3 -152 1 -173 -4z"/>
</g>
</svg>
